<svg width="800" height="388" viewBox="0 0 800 388" fill="none" xmlns="http://www.w3.org/2000/svg">
<path d="M730.933 369H67.0667C38.98 369 16 346.436 16 318.857V68.1429C16 40.5643 38.98 18 67.0667 18H730.933C759.02 18 782 40.5643 782 68.1429V318.857C782 346.436 759.02 369 730.933 369Z" stroke="#454438" stroke-width="32" stroke-miterlimit="10" stroke-linecap="round" stroke-linejoin="round"/>
<path d="M322.4 268.714C294.313 268.714 271.333 246.15 271.333 218.571V168.429C271.333 140.85 294.313 118.286 322.4 118.286C350.487 118.286 373.467 140.85 373.467 168.429V218.571C373.467 246.15 350.487 268.714 322.4 268.714Z" stroke="#454438" stroke-width="32" stroke-miterlimit="10" stroke-linecap="round" stroke-linejoin="round"/>
<path d="M450.067 118.286V268.714" stroke="#454438" stroke-width="32" stroke-miterlimit="10" stroke-linecap="round" stroke-linejoin="round"/>
<path d="M526.667 118.286L450.067 218.571" stroke="#454438" stroke-width="32" stroke-miterlimit="10" stroke-linecap="round" stroke-linejoin="round"/>
<path d="M526.667 268.714L475.6 193.5" stroke="#454438" stroke-width="32" stroke-miterlimit="10" stroke-linecap="round" stroke-linejoin="round"/>
</svg>
